<svg xmlns="http://www.w3.org/2000/svg" viewBox="0 0 1200 675" width="1200" height="675">
  <defs>
    <linearGradient id="bgGrad" x1="0%" y1="0%" x2="100%" y2="100%">
      <stop offset="0%" style="stop-color:#06100a"/>
      <stop offset="50%" style="stop-color:#08100e"/>
      <stop offset="100%" style="stop-color:#060c10"/>
    </linearGradient>
    <linearGradient id="floorGrad" x1="0%" y1="0%" x2="0%" y2="100%">
      <stop offset="0%" style="stop-color:#0a1510;stop-opacity:1"/>
      <stop offset="100%" style="stop-color:#04090a;stop-opacity:1"/>
    </linearGradient>
    <linearGradient id="layer1Grad" x1="0%" y1="0%" x2="100%" y2="0%">
      <stop offset="0%" style="stop-color:#0a1f10"/>
      <stop offset="100%" style="stop-color:#0d2018"/>
    </linearGradient>
    <linearGradient id="layer2Grad" x1="0%" y1="0%" x2="100%" y2="0%">
      <stop offset="0%" style="stop-color:#0d1a25"/>
      <stop offset="100%" style="stop-color:#0a1520"/>
    </linearGradient>
    <linearGradient id="layer3Grad" x1="0%" y1="0%" x2="100%" y2="0%">
      <stop offset="0%" style="stop-color:#1a140a"/>
      <stop offset="100%" style="stop-color:#1a1205"/>
    </linearGradient>
    <linearGradient id="layer4Grad" x1="0%" y1="0%" x2="100%" y2="0%">
      <stop offset="0%" style="stop-color:#0e0a1a"/>
      <stop offset="100%" style="stop-color:#100a1e"/>
    </linearGradient>
    <radialGradient id="amberGlow" cx="50%" cy="50%" r="50%">
      <stop offset="0%" style="stop-color:#fbbf24;stop-opacity:0.22"/>
      <stop offset="100%" style="stop-color:#f59e0b;stop-opacity:0"/>
    </radialGradient>
    <radialGradient id="cyanGlow" cx="50%" cy="50%" r="50%">
      <stop offset="0%" style="stop-color:#06b6d4;stop-opacity:0.2"/>
      <stop offset="100%" style="stop-color:#0891b2;stop-opacity:0"/>
    </radialGradient>
    <radialGradient id="greenGlow" cx="50%" cy="50%" r="50%">
      <stop offset="0%" style="stop-color:#22c55e;stop-opacity:0.2"/>
      <stop offset="100%" style="stop-color:#16a34a;stop-opacity:0"/>
    </radialGradient>
    <radialGradient id="purpleGlow" cx="50%" cy="50%" r="50%">
      <stop offset="0%" style="stop-color:#a855f7;stop-opacity:0.2"/>
      <stop offset="100%" style="stop-color:#7c3aed;stop-opacity:0"/>
    </radialGradient>
    <radialGradient id="centerGlow" cx="50%" cy="50%" r="55%">
      <stop offset="0%" style="stop-color:#0a2018;stop-opacity:0.9"/>
      <stop offset="100%" style="stop-color:#060c0a;stop-opacity:0"/>
    </radialGradient>
    <filter id="glow-amber" x="-50%" y="-50%" width="200%" height="200%">
      <feGaussianBlur stdDeviation="3" result="blur"/>
      <feMerge><feMergeNode in="blur"/><feMergeNode in="SourceGraphic"/></feMerge>
    </filter>
    <filter id="glow-cyan" x="-50%" y="-50%" width="200%" height="200%">
      <feGaussianBlur stdDeviation="2.5" result="blur"/>
      <feMerge><feMergeNode in="blur"/><feMergeNode in="SourceGraphic"/></feMerge>
    </filter>
    <filter id="glow-green" x="-50%" y="-50%" width="200%" height="200%">
      <feGaussianBlur stdDeviation="3" result="blur"/>
      <feMerge><feMergeNode in="blur"/><feMergeNode in="SourceGraphic"/></feMerge>
    </filter>
    <filter id="glow-purple" x="-50%" y="-50%" width="200%" height="200%">
      <feGaussianBlur stdDeviation="3" result="blur"/>
      <feMerge><feMergeNode in="blur"/><feMergeNode in="SourceGraphic"/></feMerge>
    </filter>
    <filter id="blur-heavy">
      <feGaussianBlur stdDeviation="20"/>
    </filter>
    <filter id="blur-med">
      <feGaussianBlur stdDeviation="7"/>
    </filter>
    <filter id="blur-soft">
      <feGaussianBlur stdDeviation="12"/>
    </filter>
    <linearGradient id="accuracyLineGrad" x1="0%" y1="0%" x2="100%" y2="0%">
      <stop offset="0%" style="stop-color:#22c55e;stop-opacity:0.2"/>
      <stop offset="50%" style="stop-color:#fbbf24;stop-opacity:0.9"/>
      <stop offset="100%" style="stop-color:#22c55e;stop-opacity:0.2"/>
    </linearGradient>
  </defs>

  <!-- ── Base background ── -->
  <rect width="1200" height="675" fill="url(#bgGrad)"/>

  <!-- ── Subtle grid ── -->
  <g opacity="0.055" stroke="#22c55e" stroke-width="0.5">
    <line x1="0" y1="0" x2="0" y2="675"/><line x1="80" y1="0" x2="80" y2="675"/>
    <line x1="160" y1="0" x2="160" y2="675"/><line x1="240" y1="0" x2="240" y2="675"/>
    <line x1="320" y1="0" x2="320" y2="675"/><line x1="400" y1="0" x2="400" y2="675"/>
    <line x1="480" y1="0" x2="480" y2="675"/><line x1="560" y1="0" x2="560" y2="675"/>
    <line x1="640" y1="0" x2="640" y2="675"/><line x1="720" y1="0" x2="720" y2="675"/>
    <line x1="800" y1="0" x2="800" y2="675"/><line x1="880" y1="0" x2="880" y2="675"/>
    <line x1="960" y1="0" x2="960" y2="675"/><line x1="1040" y1="0" x2="1040" y2="675"/>
    <line x1="1120" y1="0" x2="1120" y2="675"/><line x1="1200" y1="0" x2="1200" y2="675"/>
    <line x1="0" y1="0" x2="1200" y2="0"/><line x1="0" y1="80" x2="1200" y2="80"/>
    <line x1="0" y1="160" x2="1200" y2="160"/><line x1="0" y1="240" x2="1200" y2="240"/>
    <line x1="0" y1="320" x2="1200" y2="320"/><line x1="0" y1="400" x2="1200" y2="400"/>
    <line x1="0" y1="480" x2="1200" y2="480"/><line x1="0" y1="560" x2="1200" y2="560"/>
    <line x1="0" y1="640" x2="1200" y2="640"/>
  </g>

  <!-- ── Ambient glows ── -->
  <ellipse cx="200" cy="300" rx="260" ry="200" fill="url(#greenGlow)" filter="url(#blur-heavy)"/>
  <ellipse cx="600" cy="200" rx="300" ry="220" fill="url(#cyanGlow)" filter="url(#blur-heavy)"/>
  <ellipse cx="1000" cy="300" rx="260" ry="200" fill="url(#purpleGlow)" filter="url(#blur-heavy)"/>
  <ellipse cx="600" cy="480" rx="400" ry="180" fill="url(#amberGlow)" filter="url(#blur-heavy)"/>
  <ellipse cx="600" cy="340" rx="320" ry="240" fill="url(#centerGlow)" filter="url(#blur-soft)"/>

  <!-- ══════════════════════════════════════════
       CENTRAL STACK — 4 INFRASTRUCTURE LAYERS
       ══════════════════════════════════════════ -->

  <!-- Stack container shadow -->
  <rect x="246" y="78" width="708" height="428" rx="16" fill="#030808" filter="url(#blur-med)" opacity="0.8"/>

  <!-- ── LAYER 4 (bottom): OBSERVABILITY ── -->
  <rect x="250" y="382" width="700" height="100" rx="0" fill="url(#layer4Grad)" stroke="#7c3aed" stroke-width="1" opacity="0.9"/>
  <rect x="250" y="382" width="700" height="100" rx="0" fill="url(#purpleGlow)" opacity="0.4"/>
  <!-- Layer 4 left accent bar -->
  <rect x="250" y="382" width="4" height="100" fill="#a855f7"/>
  <!-- Layer 4 label -->
  <text x="278" y="402" font-size="8" fill="#a855f7" font-family="monospace" letter-spacing="2" opacity="0.9">LAYER 04</text>
  <text x="278" y="420" font-size="14" fill="#c084fc" font-family="monospace" font-weight="bold">OBSERVABILITY</text>
  <!-- Observability mini elements -->
  <!-- Log stream visualization -->
  <g opacity="0.85">
    <rect x="278" y="434" width="320" height="6" rx="1" fill="#1e1035" stroke="#7c3aed" stroke-width="0.5"/>
    <rect x="280" y="435" width="180" height="4" rx="1" fill="#a855f7" opacity="0.6"/>
    <rect x="278" y="445" width="320" height="6" rx="1" fill="#1e1035" stroke="#7c3aed" stroke-width="0.5"/>
    <rect x="280" y="446" width="240" height="4" rx="1" fill="#a855f7" opacity="0.4"/>
    <rect x="278" y="456" width="320" height="6" rx="1" fill="#1e1035" stroke="#7c3aed" stroke-width="0.5"/>
    <rect x="280" y="457" width="140" height="4" rx="1" fill="#a855f7" opacity="0.5"/>
    <rect x="278" y="467" width="320" height="6" rx="1" fill="#1e1035" stroke="#7c3aed" stroke-width="0.5"/>
    <rect x="280" y="468" width="200" height="4" rx="1" fill="#22c55e" opacity="0.4"/>
  </g>
  <!-- Drift chart mini -->
  <g opacity="0.9">
    <rect x="618" y="434" width="310" height="44" rx="4" fill="#100820" stroke="#7c3aed" stroke-width="0.5"/>
    <text x="626" y="446" font-size="7" fill="#94a3b8" font-family="monospace">ACCURACY DRIFT MONITOR</text>
    <polyline points="626,472 646,466 666,468 686,462 706,458 726,454 746,450 766,456 786,452 806,448 826,444 846,448 866,444 886,442 906,440 922,440"
              fill="none" stroke="#22c55e" stroke-width="1.5" stroke-linecap="round" stroke-linejoin="round" filter="url(#glow-green)"/>
    <line x1="626" y1="472" x2="922" y2="472" stroke="#1e3a5a" stroke-width="0.5" opacity="0.5"/>
  </g>
  <!-- Right side: metric badges -->
  <g filter="url(#glow-purple)" opacity="0.85">
    <text x="278" y="488" font-size="7" fill="#a855f7" font-family="monospace" letter-spacing="1">RETRIEVAL TRACE LOGGING  ·  DRIFT DETECTION  ·  FEEDBACK LOOPS  ·  AGENT AUDIT</text>
  </g>

  <!-- ── LAYER 3 (above): GUARDRAILS ── -->
  <rect x="250" y="272" width="700" height="104" rx="0" fill="url(#layer3Grad)" stroke="#d97706" stroke-width="1" opacity="0.9"/>
  <rect x="250" y="272" width="700" height="104" rx="0" fill="url(#amberGlow)" opacity="0.35"/>
  <!-- Layer 3 left accent bar -->
  <rect x="250" y="272" width="4" height="104" fill="#fbbf24"/>
  <!-- Layer 3 label -->
  <text x="278" y="292" font-size="8" fill="#fbbf24" font-family="monospace" letter-spacing="2" opacity="0.9">LAYER 03</text>
  <text x="278" y="310" font-size="14" fill="#fcd34d" font-family="monospace" font-weight="bold">GUARDRAIL DESIGN</text>
  <!-- Guardrail visual: input → validation → output chain -->
  <g opacity="0.9">
    <!-- Input box -->
    <rect x="278" y="322" width="90" height="36" rx="4" fill="#1a1205" stroke="#fbbf24" stroke-width="0.8"/>
    <text x="323" y="337" text-anchor="middle" font-size="7" fill="#94a3b8" font-family="monospace">INPUT</text>
    <text x="323" y="350" text-anchor="middle" font-size="7" fill="#fbbf24" font-family="monospace">VALIDATED</text>
    <!-- Arrow 1 -->
    <line x1="368" y1="340" x2="390" y2="340" stroke="#fbbf24" stroke-width="1.2" opacity="0.7"/>
    <polygon points="392,340 388,337 388,343" fill="#fbbf24" opacity="0.7"/>
    <!-- Confidence threshold -->
    <rect x="392" y="322" width="110" height="36" rx="4" fill="#1a1205" stroke="#fbbf24" stroke-width="0.8"/>
    <text x="447" y="335" text-anchor="middle" font-size="7" fill="#94a3b8" font-family="monospace">CONFIDENCE</text>
    <text x="447" y="345" text-anchor="middle" font-size="7" fill="#fbbf24" font-family="monospace">THRESHOLD</text>
    <text x="447" y="354" text-anchor="middle" font-size="8" fill="#22c55e" font-family="monospace" font-weight="bold">≥ 0.82</text>
    <!-- Arrow 2 -->
    <line x1="502" y1="340" x2="524" y2="340" stroke="#fbbf24" stroke-width="1.2" opacity="0.7"/>
    <polygon points="526,340 522,337 522,343" fill="#fbbf24" opacity="0.7"/>
    <!-- Output validation -->
    <rect x="526" y="322" width="110" height="36" rx="4" fill="#1a1205" stroke="#fbbf24" stroke-width="0.8"/>
    <text x="581" y="335" text-anchor="middle" font-size="7" fill="#94a3b8" font-family="monospace">OUTPUT</text>
    <text x="581" y="345" text-anchor="middle" font-size="7" fill="#fbbf24" font-family="monospace">VALIDATION</text>
    <text x="581" y="354" text-anchor="middle" font-size="8" fill="#22c55e" font-family="monospace" font-weight="bold">✓ PASS</text>
    <!-- Arrow 3 -->
    <line x1="636" y1="340" x2="658" y2="340" stroke="#fbbf24" stroke-width="1.2" opacity="0.7"/>
    <polygon points="660,340 656,337 656,343" fill="#fbbf24" opacity="0.7"/>
    <!-- Escalation path -->
    <rect x="660" y="322" width="110" height="36" rx="4" fill="#1a1205" stroke="#22c55e" stroke-width="0.8"/>
    <text x="715" y="335" text-anchor="middle" font-size="7" fill="#94a3b8" font-family="monospace">ESCALATION</text>
    <text x="715" y="345" text-anchor="middle" font-size="7" fill="#22c55e" font-family="monospace">PATHWAY</text>
    <text x="715" y="354" text-anchor="middle" font-size="7" fill="#94a3b8" font-family="monospace">CONTEXT PRESERVED</text>
  </g>
  <text x="278" y="372" font-size="7" fill="#d97706" font-family="monospace" letter-spacing="1" opacity="0.75">CONFIDENCE THRESHOLDS  ·  INPUT VALIDATION  ·  OUTPUT ENFORCEMENT  ·  FALLBACK ROUTING</text>

  <!-- Layer connector: 3 → 4 -->
  <rect x="254" y="378" width="692" height="6" fill="url(#accuracyLineGrad)" opacity="0.5"/>

  <!-- ── LAYER 2 (above): DATA QUALITY ── -->
  <rect x="250" y="168" width="700" height="98" rx="0" fill="url(#layer2Grad)" stroke="#0891b2" stroke-width="1" opacity="0.9"/>
  <rect x="250" y="168" width="700" height="98" rx="0" fill="url(#cyanGlow)" opacity="0.3"/>
  <!-- Layer 2 left accent bar -->
  <rect x="250" y="168" width="4" height="98" fill="#06b6d4"/>
  <!-- Layer 2 label -->
  <text x="278" y="188" font-size="8" fill="#06b6d4" font-family="monospace" letter-spacing="2" opacity="0.9">LAYER 02</text>
  <text x="278" y="206" font-size="14" fill="#22d3ee" font-family="monospace" font-weight="bold">DATA QUALITY</text>
  <!-- Data pipeline visualization -->
  <g opacity="0.9">
    <!-- Source doc icons -->
    <rect x="278" y="218" width="36" height="28" rx="3" fill="#0a1828" stroke="#06b6d4" stroke-width="0.8"/>
    <rect x="281" y="221" width="30" height="4" rx="1" fill="#06b6d4" opacity="0.5"/>
    <rect x="281" y="228" width="24" height="3" rx="1" fill="#94a3b8" opacity="0.3"/>
    <rect x="281" y="234" width="20" height="3" rx="1" fill="#94a3b8" opacity="0.25"/>
    <rect x="281" y="240" width="26" height="3" rx="1" fill="#94a3b8" opacity="0.2"/>
    <text x="296" y="253" text-anchor="middle" font-size="6" fill="#94a3b8" font-family="monospace">SOURCE</text>

    <!-- Arrow -->
    <line x1="316" y1="232" x2="336" y2="232" stroke="#06b6d4" stroke-width="1" opacity="0.6"/>
    <polygon points="338,232 334,229 334,235" fill="#06b6d4" opacity="0.6"/>

    <!-- Clean/normalize block -->
    <rect x="338" y="218" width="90" height="28" rx="3" fill="#061520" stroke="#06b6d4" stroke-width="0.8"/>
    <text x="383" y="229" text-anchor="middle" font-size="7" fill="#94a3b8" font-family="monospace">PREPROCESS</text>
    <text x="383" y="241" text-anchor="middle" font-size="7" fill="#06b6d4" font-family="monospace">+ NORMALIZE</text>
    <text x="383" y="253" text-anchor="middle" font-size="6" fill="#94a3b8" font-family="monospace">METADATA TAG</text>

    <!-- Arrow -->
    <line x1="430" y1="232" x2="450" y2="232" stroke="#06b6d4" stroke-width="1" opacity="0.6"/>
    <polygon points="452,232 448,229 448,235" fill="#06b6d4" opacity="0.6"/>

    <!-- Freshness monitor -->
    <rect x="452" y="218" width="90" height="28" rx="3" fill="#061520" stroke="#22c55e" stroke-width="0.8"/>
    <text x="497" y="229" text-anchor="middle" font-size="7" fill="#94a3b8" font-family="monospace">FRESHNESS</text>
    <circle cx="482" cy="238" r="3" fill="#22c55e" opacity="0.8" filter="url(#glow-green)"/>
    <text x="490" y="241" font-size="7" fill="#22c55e" font-family="monospace">CURRENT</text>
    <text x="497" y="253" text-anchor="middle" font-size="6" fill="#94a3b8" font-family="monospace">OWNER ASSIGNED</text>

    <!-- Arrow -->
    <line x1="544" y1="232" x2="564" y2="232" stroke="#06b6d4" stroke-width="1" opacity="0.6"/>
    <polygon points="566,232 562,229 562,235" fill="#06b6d4" opacity="0.6"/>

    <!-- Validation -->
    <rect x="566" y="218" width="90" height="28" rx="3" fill="#061520" stroke="#06b6d4" stroke-width="0.8"/>
    <text x="611" y="229" text-anchor="middle" font-size="7" fill="#94a3b8" font-family="monospace">VALIDATION</text>
    <text x="611" y="241" text-anchor="middle" font-size="7" fill="#06b6d4" font-family="monospace">RULES CHECK</text>
    <text x="611" y="253" text-anchor="middle" font-size="6" fill="#22c55e" font-family="monospace">✓ CONSISTENT</text>

    <!-- Arrow -->
    <line x1="658" y1="232" x2="678" y2="232" stroke="#06b6d4" stroke-width="1" opacity="0.6"/>
    <polygon points="680,232 676,229 676,235" fill="#06b6d4" opacity="0.6"/>

    <!-- Index -->
    <rect x="680" y="218" width="60" height="28" rx="3" fill="#0a1828" stroke="#06b6d4" stroke-width="0.8"/>
    <text x="710" y="229" text-anchor="middle" font-size="7" fill="#94a3b8" font-family="monospace">INDEX</text>
    <rect x="684" y="233" width="52" height="4" rx="1" fill="#06b6d4" opacity="0.4"/>
    <rect x="684" y="239" width="40" height="3" rx="1" fill="#06b6d4" opacity="0.25"/>
    <text x="710" y="253" text-anchor="middle" font-size="6" fill="#22c55e" font-family="monospace">READY</text>
  </g>
  <text x="278" y="263" font-size="7" fill="#0891b2" font-family="monospace" letter-spacing="1" opacity="0.75">FRESHNESS MONITORING  ·  OWNER DISCIPLINE  ·  PREPROCESSING PIPELINES  ·  CONSISTENCY</text>

  <!-- Layer connector: 2 → 3 -->
  <rect x="254" y="264" width="692" height="6" fill="url(#accuracyLineGrad)" opacity="0.5"/>

  <!-- ── LAYER 1 (top): RETRIEVAL ARCHITECTURE ── -->
  <rect x="250" y="64" width="700" height="98" rx="8 8 0 0" fill="url(#layer1Grad)" stroke="#16a34a" stroke-width="1" opacity="0.9"/>
  <rect x="250" y="64" width="700" height="98" rx="8 8 0 0" fill="url(#greenGlow)" opacity="0.3"/>
  <!-- Layer 1 left accent bar -->
  <rect x="250" y="64" width="4" height="98" rx="2 0 0 2" fill="#22c55e"/>
  <!-- Layer 1 label -->
  <text x="278" y="84" font-size="8" fill="#22c55e" font-family="monospace" letter-spacing="2" opacity="0.9">LAYER 01</text>
  <text x="278" y="102" font-size="14" fill="#4ade80" font-family="monospace" font-weight="bold">RETRIEVAL ARCHITECTURE</text>
  <!-- Retrieval flow: Query → Hybrid Search → Rerank → Context to Model -->
  <g opacity="0.9">
    <!-- Query node -->
    <rect x="278" y="112" width="68" height="32" rx="4" fill="#0a1a10" stroke="#22c55e" stroke-width="1"/>
    <text x="312" y="125" text-anchor="middle" font-size="7" fill="#94a3b8" font-family="monospace">QUERY</text>
    <text x="312" y="137" text-anchor="middle" font-size="7" fill="#22c55e" font-family="monospace">INTENT</text>

    <!-- Arrow -->
    <line x1="346" y1="128" x2="364" y2="128" stroke="#22c55e" stroke-width="1.2" opacity="0.7"/>
    <polygon points="366,128 362,125 362,131" fill="#22c55e" opacity="0.7"/>

    <!-- Hybrid search -->
    <rect x="366" y="112" width="112" height="32" rx="4" fill="#0a1a10" stroke="#22c55e" stroke-width="1"/>
    <text x="422" y="124" text-anchor="middle" font-size="7" fill="#94a3b8" font-family="monospace">HYBRID SEARCH</text>
    <text x="422" y="134" text-anchor="middle" font-size="6" fill="#22c55e" font-family="monospace">VECTOR + KEYWORD</text>
    <text x="422" y="141" text-anchor="middle" font-size="6" fill="#94a3b8" font-family="monospace">SEMANTIC CHUNKS</text>

    <!-- Arrow -->
    <line x1="480" y1="128" x2="498" y2="128" stroke="#22c55e" stroke-width="1.2" opacity="0.7"/>
    <polygon points="500,128 496,125 496,131" fill="#22c55e" opacity="0.7"/>

    <!-- Reranking -->
    <rect x="500" y="112" width="100" height="32" rx="4" fill="#0a1a10" stroke="#22c55e" stroke-width="1"/>
    <text x="550" y="124" text-anchor="middle" font-size="7" fill="#94a3b8" font-family="monospace">RERANKING</text>
    <text x="550" y="134" text-anchor="middle" font-size="6" fill="#22c55e" font-family="monospace">SCORE BY INTENT</text>
    <text x="550" y="141" text-anchor="middle" font-size="6" fill="#94a3b8" font-family="monospace">TOP-K SELECTION</text>

    <!-- Arrow -->
    <line x1="602" y1="128" x2="620" y2="128" stroke="#22c55e" stroke-width="1.2" opacity="0.7"/>
    <polygon points="622,128 618,125 618,131" fill="#22c55e" opacity="0.7"/>

    <!-- Trace log -->
    <rect x="622" y="112" width="96" height="32" rx="4" fill="#0a1a10" stroke="#22c55e" stroke-width="1"/>
    <text x="670" y="124" text-anchor="middle" font-size="7" fill="#94a3b8" font-family="monospace">TRACE LOG</text>
    <text x="670" y="134" text-anchor="middle" font-size="6" fill="#22c55e" font-family="monospace">EVERY EVENT</text>
    <text x="670" y="141" text-anchor="middle" font-size="6" fill="#94a3b8" font-family="monospace">QUERY + CHUNKS</text>

    <!-- Arrow -->
    <line x1="720" y1="128" x2="740" y2="128" stroke="#fbbf24" stroke-width="1.5" opacity="0.8" filter="url(#glow-amber)"/>
    <polygon points="742,128 738,125 738,131" fill="#fbbf24" opacity="0.8"/>

    <!-- Model node -->
    <rect x="742" y="112" width="80" height="32" rx="4" fill="#1a1205" stroke="#fbbf24" stroke-width="1.2"/>
    <text x="782" y="124" text-anchor="middle" font-size="7" fill="#94a3b8" font-family="monospace">MODEL</text>
    <text x="782" y="136" text-anchor="middle" font-size="8" fill="#fbbf24" font-family="monospace" font-weight="bold">CONTEXT ✓</text>
    <text x="782" y="145" text-anchor="middle" font-size="6" fill="#22c55e" font-family="monospace">ACCURATE</text>
  </g>
  <text x="278" y="157" font-size="7" fill="#16a34a" font-family="monospace" letter-spacing="1" opacity="0.75">SEMANTIC CHUNKING  ·  HYBRID SEARCH  ·  RERANKING  ·  RETRIEVAL TRACE LOGGING</text>

  <!-- Layer connector: 1 → 2 -->
  <rect x="254" y="160" width="692" height="6" fill="url(#accuracyLineGrad)" opacity="0.5"/>

  <!-- ══════════════════════════════════
       ACCURACY SCORE READOUT (right side)
       ══════════════════════════════════ -->
  <!-- Panel -->
  <rect x="980" y="64" width="190" height="418" rx="10" fill="#040d08" stroke="#16a34a" stroke-width="1" opacity="0.85"/>
  <rect x="980" y="64" width="190" height="418" rx="10" fill="url(#greenGlow)" opacity="0.25"/>
  <!-- Panel header -->
  <rect x="980" y="64" width="190" height="32" rx="10 10 0 0" fill="#0a1a10"/>
  <text x="1075" y="83" text-anchor="middle" font-size="8" fill="#22c55e" font-family="monospace" letter-spacing="1">ACCURACY MONITOR</text>

  <!-- Score display -->
  <text x="1075" y="140" text-anchor="middle" font-size="52" fill="#22c55e" font-family="monospace" font-weight="bold" filter="url(#glow-green)" opacity="0.95">97</text>
  <text x="1075" y="160" text-anchor="middle" font-size="14" fill="#22c55e" font-family="monospace" opacity="0.7">%</text>
  <text x="1075" y="176" text-anchor="middle" font-size="8" fill="#4ade80" font-family="monospace" letter-spacing="1">OUTPUT ACCURACY</text>

  <!-- Status bars -->
  <g opacity="0.9">
    <!-- Retrieval -->
    <text x="996" y="202" font-size="7" fill="#94a3b8" font-family="monospace">RETRIEVAL</text>
    <rect x="996" y="206" width="158" height="6" rx="2" fill="#0a1a10"/>
    <rect x="996" y="206" width="152" height="6" rx="2" fill="#22c55e" opacity="0.7" filter="url(#glow-green)"/>
    <text x="1154" y="212" text-anchor="end" font-size="6" fill="#22c55e" font-family="monospace">96%</text>

    <!-- Data -->
    <text x="996" y="226" font-size="7" fill="#94a3b8" font-family="monospace">DATA QUALITY</text>
    <rect x="996" y="230" width="158" height="6" rx="2" fill="#0a1a10"/>
    <rect x="996" y="230" width="148" height="6" rx="2" fill="#06b6d4" opacity="0.7" filter="url(#glow-cyan)"/>
    <text x="1154" y="236" text-anchor="end" font-size="6" fill="#06b6d4" font-family="monospace">94%</text>

    <!-- Guardrails -->
    <text x="996" y="250" font-size="7" fill="#94a3b8" font-family="monospace">GUARDRAILS</text>
    <rect x="996" y="254" width="158" height="6" rx="2" fill="#0a1a10"/>
    <rect x="996" y="254" width="155" height="6" rx="2" fill="#fbbf24" opacity="0.7" filter="url(#glow-amber)"/>
    <text x="1154" y="260" text-anchor="end" font-size="6" fill="#fbbf24" font-family="monospace">98%</text>

    <!-- Observability -->
    <text x="996" y="274" font-size="7" fill="#94a3b8" font-family="monospace">OBSERVABILITY</text>
    <rect x="996" y="278" width="158" height="6" rx="2" fill="#0a1a10"/>
    <rect x="996" y="278" width="145" height="6" rx="2" fill="#a855f7" opacity="0.7" filter="url(#glow-purple)"/>
    <text x="1154" y="284" text-anchor="end" font-size="6" fill="#a855f7" font-family="monospace">92%</text>
  </g>

  <!-- Divider -->
  <line x1="996" y1="300" x2="1154" y2="300" stroke="#1e3a2a" stroke-width="0.5"/>

  <!-- Status indicators -->
  <g opacity="0.9">
    <circle cx="1000" cy="320" r="4" fill="#22c55e" filter="url(#glow-green)"/>
    <text x="1010" y="324" font-size="7" fill="#4ade80" font-family="monospace">RETRIEVAL — HEALTHY</text>
    <circle cx="1000" cy="338" r="4" fill="#22c55e" filter="url(#glow-green)"/>
    <text x="1010" y="342" font-size="7" fill="#22d3ee" font-family="monospace">DATA — CURRENT</text>
    <circle cx="1000" cy="356" r="4" fill="#22c55e" filter="url(#glow-green)"/>
    <text x="1010" y="360" font-size="7" fill="#fcd34d" font-family="monospace">GUARDRAILS — ACTIVE</text>
    <circle cx="1000" cy="374" r="4" fill="#22c55e" filter="url(#glow-green)"/>
    <text x="1010" y="378" font-size="7" fill="#c084fc" font-family="monospace">OBSERVE — RUNNING</text>
  </g>

  <!-- Divider 2 -->
  <line x1="996" y1="394" x2="1154" y2="394" stroke="#1e3a2a" stroke-width="0.5"/>

  <!-- Uptime / baseline -->
  <text x="1075" y="416" text-anchor="middle" font-size="7" fill="#64748b" font-family="monospace">BASELINE ESTABLISHED</text>
  <text x="1075" y="432" text-anchor="middle" font-size="10" fill="#22c55e" font-family="monospace" font-weight="bold">2026-05-12</text>
  <text x="1075" y="450" text-anchor="middle" font-size="7" fill="#64748b" font-family="monospace">DRIFT ΔMAX  0.3%</text>
  <text x="1075" y="465" text-anchor="middle" font-size="7" fill="#22c55e" font-family="monospace">WITHIN THRESHOLD</text>
  <text x="1075" y="482" text-anchor="middle" font-size="7" fill="#64748b" font-family="monospace">NEXT REVIEW  —30 DAYS</text>

  <!-- ══════════════════════════════════
       LEFT SIDE — PROBLEM PANEL (without infra)
       ══════════════════════════════════ -->
  <rect x="30" y="64" width="200" height="418" rx="10" fill="#040808" stroke="#ef4444" stroke-width="1" opacity="0.75"/>
  <!-- Panel header -->
  <rect x="30" y="64" width="200" height="32" rx="10 10 0 0" fill="#1a0505"/>
  <text x="130" y="83" text-anchor="middle" font-size="8" fill="#ef4444" font-family="monospace" letter-spacing="1">WITHOUT INFRA</text>

  <!-- Score display -->
  <text x="130" y="135" text-anchor="middle" font-size="52" fill="#ef4444" font-family="monospace" font-weight="bold" opacity="0.85">54</text>
  <text x="130" y="155" text-anchor="middle" font-size="14" fill="#ef4444" font-family="monospace" opacity="0.6">%</text>
  <text x="130" y="170" text-anchor="middle" font-size="8" fill="#f87171" font-family="monospace" letter-spacing="1">OUTPUT ACCURACY</text>

  <!-- Problem bars -->
  <g opacity="0.85">
    <text x="46" y="198" font-size="7" fill="#94a3b8" font-family="monospace">RETRIEVAL</text>
    <rect x="46" y="202" width="168" height="6" rx="2" fill="#1a0505"/>
    <rect x="46" y="202" width="80" height="6" rx="2" fill="#ef4444" opacity="0.6"/>
    <text x="214" y="208" text-anchor="end" font-size="6" fill="#ef4444" font-family="monospace">48%</text>

    <text x="46" y="222" font-size="7" fill="#94a3b8" font-family="monospace">DATA QUALITY</text>
    <rect x="46" y="226" width="168" height="6" rx="2" fill="#1a0505"/>
    <rect x="46" y="226" width="90" height="6" rx="2" fill="#ef4444" opacity="0.5"/>
    <text x="214" y="232" text-anchor="end" font-size="6" fill="#ef4444" font-family="monospace">54%</text>

    <text x="46" y="246" font-size="7" fill="#94a3b8" font-family="monospace">GUARDRAILS</text>
    <rect x="46" y="250" width="168" height="6" rx="2" fill="#1a0505"/>
    <rect x="46" y="250" width="0" height="6" rx="2" fill="#ef4444" opacity="0.4"/>
    <text x="214" y="256" text-anchor="end" font-size="6" fill="#ef4444" font-family="monospace">NONE</text>

    <text x="46" y="270" font-size="7" fill="#94a3b8" font-family="monospace">OBSERVABILITY</text>
    <rect x="46" y="274" width="168" height="6" rx="2" fill="#1a0505"/>
    <rect x="46" y="274" width="0" height="6" rx="2" fill="#ef4444" opacity="0.4"/>
    <text x="214" y="280" text-anchor="end" font-size="6" fill="#ef4444" font-family="monospace">NONE</text>
  </g>

  <line x1="46" y1="296" x2="214" y2="296" stroke="#2a0a0a" stroke-width="0.5"/>

  <!-- Warning items -->
  <g opacity="0.8">
    <circle cx="50" cy="316" r="4" fill="#ef4444" opacity="0.7"/>
    <text x="60" y="320" font-size="7" fill="#f87171" font-family="monospace">HALLUCINATIONS ↑</text>
    <circle cx="50" cy="334" r="4" fill="#ef4444" opacity="0.7"/>
    <text x="60" y="338" font-size="7" fill="#f87171" font-family="monospace">STALE CONTEXT</text>
    <circle cx="50" cy="352" r="4" fill="#fbbf24" opacity="0.7"/>
    <text x="60" y="356" font-size="7" fill="#fcd34d" font-family="monospace">NO FALLBACK</text>
    <circle cx="50" cy="370" r="4" fill="#ef4444" opacity="0.7"/>
    <text x="60" y="374" font-size="7" fill="#f87171" font-family="monospace">DRIFT INVISIBLE</text>
  </g>

  <line x1="46" y1="390" x2="214" y2="390" stroke="#2a0a0a" stroke-width="0.5"/>

  <text x="130" y="412" text-anchor="middle" font-size="7" fill="#64748b" font-family="monospace">DEGRADATION RATE</text>
  <text x="130" y="428" text-anchor="middle" font-size="10" fill="#ef4444" font-family="monospace" font-weight="bold">-3.2% / MO</text>
  <text x="130" y="448" text-anchor="middle" font-size="7" fill="#64748b" font-family="monospace">FAILURE DETECTION</text>
  <text x="130" y="464" text-anchor="middle" font-size="8" fill="#ef4444" font-family="monospace" font-weight="bold">AFTER DAMAGE</text>
  <text x="130" y="482" text-anchor="middle" font-size="7" fill="#64748b" font-family="monospace">VENDOR TICKETS OPEN: 7</text>

  <!-- ══════════════════════════════════
       BOTTOM LABEL STRIP
       ══════════════════════════════════ -->
  <!-- Floor -->
  <rect x="0" y="500" width="1200" height="175" fill="url(#floorGrad)" opacity="0.5"/>
  <line x1="0" y1="500" x2="1200" y2="500" stroke="#16a34a" stroke-width="0.5" opacity="0.25"/>

  <!-- Title text -->
  <text x="600" y="548" text-anchor="middle" font-size="22" fill="#f8fafc" font-family="serif" font-weight="700" opacity="0.92">Enterprise AI Accuracy Is an Infrastructure Problem</text>
  <text x="600" y="574" text-anchor="middle" font-size="12" fill="#94a3b8" font-family="monospace" letter-spacing="2" opacity="0.8">NOT A MODEL PROBLEM — INVISIGENT.AI</text>

  <!-- Layer legend strip -->
  <g opacity="0.7">
    <rect x="200" y="598" width="14" height="8" rx="2" fill="#22c55e"/>
    <text x="220" y="606" font-size="8" fill="#94a3b8" font-family="monospace">RETRIEVAL</text>
    <rect x="338" y="598" width="14" height="8" rx="2" fill="#06b6d4"/>
    <text x="358" y="606" font-size="8" fill="#94a3b8" font-family="monospace">DATA QUALITY</text>
    <rect x="490" y="598" width="14" height="8" rx="2" fill="#fbbf24"/>
    <text x="510" y="606" font-size="8" fill="#94a3b8" font-family="monospace">GUARDRAILS</text>
    <rect x="626" y="598" width="14" height="8" rx="2" fill="#a855f7"/>
    <text x="646" y="606" font-size="8" fill="#94a3b8" font-family="monospace">OBSERVABILITY</text>
    <rect x="792" y="598" width="14" height="8" rx="2" fill="#4ade80" opacity="0.6"/>
    <text x="812" y="606" font-size="8" fill="#94a3b8" font-family="monospace">ACCURACY ASSURED</text>
  </g>

  <!-- ── Ambient connector lines between left panel and stack ── -->
  <line x1="230" y1="130" x2="250" y2="130" stroke="#ef4444" stroke-width="0.8" stroke-dasharray="4,3" opacity="0.35"/>
  <line x1="230" y1="220" x2="250" y2="220" stroke="#ef4444" stroke-width="0.8" stroke-dasharray="4,3" opacity="0.3"/>
  <line x1="230" y1="340" x2="250" y2="340" stroke="#ef4444" stroke-width="0.8" stroke-dasharray="4,3" opacity="0.25"/>
  <line x1="230" y1="430" x2="250" y2="430" stroke="#ef4444" stroke-width="0.8" stroke-dasharray="4,3" opacity="0.2"/>

  <!-- Stack to right panel connectors -->
  <line x1="950" y1="130" x2="980" y2="130" stroke="#22c55e" stroke-width="0.8" stroke-dasharray="4,3" opacity="0.4"/>
  <line x1="950" y1="220" x2="980" y2="220" stroke="#06b6d4" stroke-width="0.8" stroke-dasharray="4,3" opacity="0.35"/>
  <line x1="950" y1="340" x2="980" y2="340" stroke="#fbbf24" stroke-width="0.8" stroke-dasharray="4,3" opacity="0.35"/>
  <line x1="950" y1="430" x2="980" y2="430" stroke="#a855f7" stroke-width="0.8" stroke-dasharray="4,3" opacity="0.3"/>

  <!-- ── VIGNETTE ── -->
  <radialGradient id="vignette" cx="50%" cy="50%" r="70%">
    <stop offset="0%" style="stop-color:#000000;stop-opacity:0"/>
    <stop offset="100%" style="stop-color:#000000;stop-opacity:0.6"/>
  </radialGradient>
  <rect width="1200" height="675" fill="url(#vignette)"/>
</svg>
