<svg xmlns="http://www.w3.org/2000/svg" viewBox="0 0 1200 675" width="1200" height="675">
  <defs>
    <!-- Backgrounds -->
    <linearGradient id="bgGrad" x1="0%" y1="0%" x2="100%" y2="100%">
      <stop offset="0%" style="stop-color:#060c1a"/>
      <stop offset="50%" style="stop-color:#0a1020"/>
      <stop offset="100%" style="stop-color:#080d18"/>
    </linearGradient>
    <linearGradient id="floorGrad" x1="0%" y1="0%" x2="0%" y2="100%">
      <stop offset="0%" style="stop-color:#0d1525;stop-opacity:1"/>
      <stop offset="100%" style="stop-color:#060c14;stop-opacity:1"/>
    </linearGradient>
    <!-- Screen glows -->
    <radialGradient id="redGlow" cx="50%" cy="50%" r="50%">
      <stop offset="0%" style="stop-color:#ff3a3a;stop-opacity:0.25"/>
      <stop offset="100%" style="stop-color:#ff0000;stop-opacity:0"/>
    </radialGradient>
    <radialGradient id="cyanGlow" cx="50%" cy="50%" r="50%">
      <stop offset="0%" style="stop-color:#00d4ff;stop-opacity:0.18"/>
      <stop offset="100%" style="stop-color:#00aaff;stop-opacity:0"/>
    </radialGradient>
    <radialGradient id="amberGlow" cx="50%" cy="50%" r="50%">
      <stop offset="0%" style="stop-color:#fbbf24;stop-opacity:0.2"/>
      <stop offset="100%" style="stop-color:#f59e0b;stop-opacity:0"/>
    </radialGradient>
    <radialGradient id="centerGlow" cx="50%" cy="60%" r="55%">
      <stop offset="0%" style="stop-color:#1a2a4a;stop-opacity:0.8"/>
      <stop offset="100%" style="stop-color:#060c1a;stop-opacity:0"/>
    </radialGradient>
    <!-- Screen face gradients -->
    <linearGradient id="screen1Grad" x1="0%" y1="0%" x2="0%" y2="100%">
      <stop offset="0%" style="stop-color:#0f1e3a"/>
      <stop offset="100%" style="stop-color:#080f20"/>
    </linearGradient>
    <linearGradient id="screen2Grad" x1="0%" y1="0%" x2="0%" y2="100%">
      <stop offset="0%" style="stop-color:#1a0a0a"/>
      <stop offset="100%" style="stop-color:#0d0505"/>
    </linearGradient>
    <linearGradient id="screen3Grad" x1="0%" y1="0%" x2="0%" y2="100%">
      <stop offset="0%" style="stop-color:#0d1a10"/>
      <stop offset="100%" style="stop-color:#060e08"/>
    </linearGradient>
    <linearGradient id="chartDown" x1="0%" y1="0%" x2="0%" y2="100%">
      <stop offset="0%" style="stop-color:#ef4444;stop-opacity:0.6"/>
      <stop offset="100%" style="stop-color:#ef4444;stop-opacity:0.05"/>
    </linearGradient>
    <linearGradient id="deskGrad" x1="0%" y1="0%" x2="0%" y2="100%">
      <stop offset="0%" style="stop-color:#1a2035"/>
      <stop offset="100%" style="stop-color:#111827"/>
    </linearGradient>
    <!-- Filters -->
    <filter id="glow-red" x="-50%" y="-50%" width="200%" height="200%">
      <feGaussianBlur stdDeviation="3" result="blur"/>
      <feMerge><feMergeNode in="blur"/><feMergeNode in="SourceGraphic"/></feMerge>
    </filter>
    <filter id="glow-cyan" x="-50%" y="-50%" width="200%" height="200%">
      <feGaussianBlur stdDeviation="2.5" result="blur"/>
      <feMerge><feMergeNode in="blur"/><feMergeNode in="SourceGraphic"/></feMerge>
    </filter>
    <filter id="glow-soft" x="-30%" y="-30%" width="160%" height="160%">
      <feGaussianBlur stdDeviation="8" result="blur"/>
      <feMerge><feMergeNode in="blur"/><feMergeNode in="SourceGraphic"/></feMerge>
    </filter>
    <filter id="blur-heavy">
      <feGaussianBlur stdDeviation="18"/>
    </filter>
    <filter id="blur-med">
      <feGaussianBlur stdDeviation="6"/>
    </filter>
    <clipPath id="screen1Clip">
      <rect x="72" y="88" width="296" height="198" rx="4"/>
    </clipPath>
    <clipPath id="screen2Clip">
      <rect x="452" y="58" width="296" height="210" rx="4"/>
    </clipPath>
    <clipPath id="screen3Clip">
      <rect x="832" y="78" width="296" height="204" rx="4"/>
    </clipPath>
  </defs>

  <!-- ── Base background ── -->
  <rect width="1200" height="675" fill="url(#bgGrad)"/>

  <!-- ── Subtle grid ── -->
  <g opacity="0.07" stroke="#3b82f6" stroke-width="0.5">
    <!-- Vertical lines -->
    <line x1="0" y1="0" x2="0" y2="675"/><line x1="80" y1="0" x2="80" y2="675"/>
    <line x1="160" y1="0" x2="160" y2="675"/><line x1="240" y1="0" x2="240" y2="675"/>
    <line x1="320" y1="0" x2="320" y2="675"/><line x1="400" y1="0" x2="400" y2="675"/>
    <line x1="480" y1="0" x2="480" y2="675"/><line x1="560" y1="0" x2="560" y2="675"/>
    <line x1="640" y1="0" x2="640" y2="675"/><line x1="720" y1="0" x2="720" y2="675"/>
    <line x1="800" y1="0" x2="800" y2="675"/><line x1="880" y1="0" x2="880" y2="675"/>
    <line x1="960" y1="0" x2="960" y2="675"/><line x1="1040" y1="0" x2="1040" y2="675"/>
    <line x1="1120" y1="0" x2="1120" y2="675"/><line x1="1200" y1="0" x2="1200" y2="675"/>
    <!-- Horizontal lines -->
    <line x1="0" y1="0" x2="1200" y2="0"/><line x1="0" y1="80" x2="1200" y2="80"/>
    <line x1="0" y1="160" x2="1200" y2="160"/><line x1="0" y1="240" x2="1200" y2="240"/>
    <line x1="0" y1="320" x2="1200" y2="320"/><line x1="0" y1="400" x2="1200" y2="400"/>
    <line x1="0" y1="480" x2="1200" y2="480"/><line x1="0" y1="560" x2="1200" y2="560"/>
    <line x1="0" y1="640" x2="1200" y2="640"/>
  </g>

  <!-- ── Ambient glows ── -->
  <ellipse cx="220" cy="200" rx="240" ry="180" fill="url(#redGlow)" filter="url(#blur-heavy)"/>
  <ellipse cx="600" cy="160" rx="280" ry="200" fill="url(#cyanGlow)" filter="url(#blur-heavy)"/>
  <ellipse cx="980" cy="190" rx="240" ry="180" fill="url(#redGlow)" filter="url(#blur-heavy)"/>
  <ellipse cx="600" cy="480" rx="360" ry="160" fill="url(#centerGlow)" filter="url(#blur-heavy)"/>

  <!-- ══════════════════════════════════
       SCREEN 1 — LEFT (Error / broken)
       ══════════════════════════════════ -->
  <!-- Monitor outer frame -->
  <rect x="65" y="82" width="310" height="218" rx="8" fill="#0d1525" stroke="#1e2d4a" stroke-width="1.5"/>
  <!-- Screen face -->
  <rect x="72" y="88" width="296" height="198" rx="4" fill="url(#screen2Grad)"/>
  <!-- Red ambient glow on this screen -->
  <rect x="72" y="88" width="296" height="198" rx="4" fill="url(#redGlow)" opacity="0.5"/>

  <!-- Screen content — ERROR state -->
  <g clip-path="url(#screen1Clip)">
    <!-- Top bar -->
    <rect x="72" y="88" width="296" height="22" rx="0" fill="#1a0d0d"/>
    <circle cx="86" cy="99" r="5" fill="#ef4444" opacity="0.8"/>
    <circle cx="100" cy="99" r="5" fill="#fbbf24" opacity="0.6"/>
    <circle cx="114" cy="99" r="5" fill="#22c55e" opacity="0.3"/>
    <rect x="140" y="94" width="80" height="10" rx="2" fill="#2a1010" opacity="0.8"/>
    <!-- Error icon big -->
    <circle cx="220" cy="160" r="36" fill="#1a0808" stroke="#ef4444" stroke-width="1.5" opacity="0.9"/>
    <text x="220" y="168" text-anchor="middle" font-size="32" fill="#ef4444" font-weight="bold" opacity="0.95">✕</text>
    <!-- Error text lines -->
    <rect x="140" y="205" width="160" height="8" rx="2" fill="#ef4444" opacity="0.25"/>
    <rect x="160" y="219" width="120" height="6" rx="2" fill="#ef4444" opacity="0.15"/>
    <rect x="152" y="231" width="136" height="6" rx="2" fill="#ef4444" opacity="0.1"/>
    <!-- Scan line effect -->
    <rect x="72" y="88" width="296" height="198" rx="4" fill="none" stroke="#ef4444" stroke-width="0.5" opacity="0.2"/>
  </g>

  <!-- Monitor stand -->
  <rect x="195" y="300" width="50" height="28" rx="2" fill="#0d1525"/>
  <rect x="175" y="326" width="90" height="8" rx="3" fill="#111827"/>

  <!-- Warning badge on screen 1 -->
  <g filter="url(#glow-red)">
    <circle cx="330" cy="92" r="14" fill="#1a0505" stroke="#ef4444" stroke-width="1.5"/>
    <text x="330" y="97" text-anchor="middle" font-size="14" fill="#ef4444">!</text>
  </g>

  <!-- ══════════════════════════════════
       SCREEN 2 — CENTER (Budget chart declining)
       ══════════════════════════════════ -->
  <!-- Monitor outer frame — larger, center focus -->
  <rect x="444" y="50" width="312" height="232" rx="8" fill="#0d1525" stroke="#1e3a4a" stroke-width="1.5"/>
  <!-- Screen face -->
  <rect x="452" y="58" width="296" height="210" rx="4" fill="url(#screen1Grad)"/>

  <!-- Screen content — declining budget chart -->
  <g clip-path="url(#screen2Clip)">
    <!-- Top bar -->
    <rect x="452" y="58" width="296" height="24" rx="0" fill="#0a1828"/>
    <text x="466" y="73" font-size="9" fill="#94a3b8" font-family="monospace" letter-spacing="1">BUDGET PERFORMANCE — AI INITIATIVE</text>
    <!-- Chart area -->
    <rect x="466" y="92" width="268" height="130" rx="2" fill="#060f1e" opacity="0.6"/>
    <!-- Grid lines in chart -->
    <g stroke="#1e3a5a" stroke-width="0.5" opacity="0.6">
      <line x1="466" y1="113" x2="734" y2="113"/>
      <line x1="466" y1="135" x2="734" y2="135"/>
      <line x1="466" y1="157" x2="734" y2="157"/>
      <line x1="466" y1="179" x2="734" y2="179"/>
      <line x1="466" y1="201" x2="734" y2="201"/>
    </g>
    <!-- Declining trend area fill -->
    <path d="M480,98 L510,100 L540,108 L570,118 L600,135 L630,155 L660,168 L690,182 L720,200 L720,222 L480,222 Z"
          fill="url(#chartDown)" opacity="0.5"/>
    <!-- Declining line -->
    <path d="M480,98 L510,100 L540,108 L570,118 L600,135 L630,155 L660,168 L690,182 L720,200"
          fill="none" stroke="#ef4444" stroke-width="2.5" stroke-linecap="round" stroke-linejoin="round" filter="url(#glow-red)"/>
    <!-- Data points -->
    <circle cx="480" cy="98" r="3.5" fill="#ef4444" filter="url(#glow-red)"/>
    <circle cx="570" cy="118" r="3.5" fill="#ef4444" filter="url(#glow-red)"/>
    <circle cx="660" cy="168" r="3.5" fill="#ef4444" filter="url(#glow-red)"/>
    <circle cx="720" cy="200" r="3.5" fill="#ef4444" filter="url(#glow-red)"/>
    <!-- Target line (where it should be) -->
    <line x1="480" y1="98" x2="720" y2="98" stroke="#22c55e" stroke-width="1" stroke-dasharray="6,4" opacity="0.4"/>
    <!-- Y-axis labels -->
    <text x="458" y="102" font-size="7" fill="#475569" font-family="monospace">100%</text>
    <text x="458" y="140" font-size="7" fill="#475569" font-family="monospace">60%</text>
    <text x="458" y="180" font-size="7" fill="#475569" font-family="monospace">20%</text>
    <!-- Bottom stats -->
    <rect x="466" y="234" width="60" height="22" rx="3" fill="#1a0808" stroke="#ef4444" stroke-width="0.5" opacity="0.7"/>
    <text x="496" y="243" text-anchor="middle" font-size="7" fill="#94a3b8" font-family="monospace">ROI</text>
    <text x="496" y="252" text-anchor="middle" font-size="8" fill="#ef4444" font-family="monospace" font-weight="bold">-42%</text>
    <rect x="536" y="234" width="60" height="22" rx="3" fill="#1a1208" stroke="#fbbf24" stroke-width="0.5" opacity="0.7"/>
    <text x="566" y="243" text-anchor="middle" font-size="7" fill="#94a3b8" font-family="monospace">WASTE</text>
    <text x="566" y="252" text-anchor="middle" font-size="8" fill="#fbbf24" font-family="monospace" font-weight="bold">$84K</text>
    <rect x="606" y="234" width="60" height="22" rx="3" fill="#0a1818" stroke="#64748b" stroke-width="0.5" opacity="0.7"/>
    <text x="636" y="243" text-anchor="middle" font-size="7" fill="#94a3b8" font-family="monospace">STATUS</text>
    <text x="636" y="252" text-anchor="middle" font-size="8" fill="#ef4444" font-family="monospace" font-weight="bold">FAILED</text>
  </g>

  <!-- Monitor stand center -->
  <rect x="576" y="282" width="48" height="30" rx="2" fill="#0d1525"/>
  <rect x="556" y="310" width="88" height="8" rx="3" fill="#111827"/>

  <!-- Floating warning icons around center screen -->
  <g filter="url(#glow-red)">
    <polygon points="600,28 616,54 584,54" fill="#1a0505" stroke="#ef4444" stroke-width="1.5"/>
    <text x="600" y="48" text-anchor="middle" font-size="14" fill="#ef4444" font-weight="bold">!</text>
  </g>

  <!-- ══════════════════════════════════
       SCREEN 3 — RIGHT (Broken system / errors)
       ══════════════════════════════════ -->
  <!-- Monitor outer frame -->
  <rect x="825" y="70" width="310" height="222" rx="8" fill="#0d1525" stroke="#1e2d4a" stroke-width="1.5"/>
  <!-- Screen face -->
  <rect x="832" y="78" width="296" height="204" rx="4" fill="url(#screen1Grad)"/>
  <!-- Amber ambient -->
  <rect x="832" y="78" width="296" height="204" rx="4" fill="url(#amberGlow)" opacity="0.4"/>

  <!-- Screen content — broken automations / warnings -->
  <g clip-path="url(#screen3Clip)">
    <!-- Top bar -->
    <rect x="832" y="78" width="296" height="22" rx="0" fill="#0d1420"/>
    <text x="846" y="93" font-size="9" fill="#94a3b8" font-family="monospace" letter-spacing="1">AUTOMATION PIPELINE</text>
    <!-- Workflow nodes — broken chain -->
    <!-- Node 1 OK -->
    <rect x="848" y="112" width="44" height="28" rx="4" fill="#0a1a10" stroke="#22c55e" stroke-width="1.2"/>
    <circle cx="870" cy="122" r="5" fill="#22c55e" opacity="0.7"/>
    <rect x="856" y="130" width="28" height="4" rx="1" fill="#22c55e" opacity="0.3"/>
    <!-- Arrow -->
    <line x1="892" y1="126" x2="906" y2="126" stroke="#475569" stroke-width="1.5" stroke-dasharray="3,2"/>
    <polygon points="908,126 904,123 904,129" fill="#475569"/>
    <!-- Node 2 WARN -->
    <rect x="908" y="112" width="44" height="28" rx="4" fill="#1a1305" stroke="#fbbf24" stroke-width="1.2"/>
    <circle cx="930" cy="122" r="5" fill="#fbbf24" opacity="0.7"/>
    <rect x="916" y="130" width="28" height="4" rx="1" fill="#fbbf24" opacity="0.3"/>
    <!-- Arrow broken -->
    <line x1="952" y1="126" x2="966" y2="126" stroke="#475569" stroke-width="1.5" stroke-dasharray="3,2" opacity="0.4"/>
    <!-- Node 3 ERROR -->
    <rect x="968" y="112" width="44" height="28" rx="4" fill="#1a0505" stroke="#ef4444" stroke-width="1.2"/>
    <text x="990" y="130" text-anchor="middle" font-size="14" fill="#ef4444">✕</text>
    <!-- Arrow broken -->
    <line x1="1012" y1="126" x2="1020" y2="126" stroke="#475569" stroke-width="1" stroke-dasharray="2,3" opacity="0.25"/>
    <!-- Node 4 DEAD -->
    <rect x="1022" y="112" width="44" height="28" rx="4" fill="#0d1020" stroke="#1e2d4a" stroke-width="1" opacity="0.5"/>
    <rect x="1030" y="120" width="28" height="4" rx="1" fill="#1e2d4a" opacity="0.4"/>
    <rect x="1030" y="128" width="20" height="4" rx="1" fill="#1e2d4a" opacity="0.3"/>

    <!-- Error logs below -->
    <rect x="848" y="156" width="264" height="8" rx="2" fill="#1a0808" opacity="0.8"/>
    <text x="853" y="163" font-size="7" fill="#ef4444" font-family="monospace" opacity="0.9">ERR: No guardrails defined — output unvalidated</text>
    <rect x="848" y="170" width="264" height="8" rx="2" fill="#1a0f05" opacity="0.8"/>
    <text x="853" y="177" font-size="7" fill="#fbbf24" font-family="monospace" opacity="0.9">WARN: ROI model undefined — no baseline metrics</text>
    <rect x="848" y="184" width="264" height="8" rx="2" fill="#1a0808" opacity="0.8"/>
    <text x="853" y="191" font-size="7" fill="#ef4444" font-family="monospace" opacity="0.9">ERR: Owner unassigned — escalation path missing</text>
    <rect x="848" y="198" width="264" height="8" rx="2" fill="#1a0808" opacity="0.7"/>
    <text x="853" y="205" font-size="7" fill="#ef4444" font-family="monospace" opacity="0.8">ERR: Broken process automated — errors amplified</text>
    <rect x="848" y="212" width="264" height="8" rx="2" fill="#1a0f05" opacity="0.7"/>
    <text x="853" y="219" font-size="7" fill="#fbbf24" font-family="monospace" opacity="0.8">WARN: Tool stack fragmented — 7 disconnected tools</text>
    <rect x="848" y="226" width="264" height="8" rx="2" fill="#1a0808" opacity="0.6"/>
    <text x="853" y="233" font-size="7" fill="#ef4444" font-family="monospace" opacity="0.7">FATAL: Data quality unvalidated — model corrupted</text>
    <rect x="848" y="240" width="264" height="8" rx="2" fill="#1a0808" opacity="0.5"/>
    <text x="853" y="247" font-size="7" fill="#ef4444" font-family="monospace" opacity="0.6">ERR: Static deployment — performance drift 67%</text>
    <!-- Blinking cursor -->
    <rect x="848" y="254" width="6" height="8" rx="1" fill="#ef4444" opacity="0.7"/>
  </g>

  <!-- Monitor stand right -->
  <rect x="953" y="292" width="50" height="28" rx="2" fill="#0d1525"/>
  <rect x="933" y="318" width="90" height="8" rx="3" fill="#111827"/>

  <!-- ══════════════════════════════════
       DESK + PERSON SILHOUETTE
       ══════════════════════════════════ -->
  <!-- Desk surface -->
  <rect x="100" y="350" width="1000" height="14" rx="4" fill="url(#deskGrad)" opacity="0.9"/>
  <rect x="100" y="360" width="1000" height="4" rx="0" fill="#0d1222" opacity="0.7"/>

  <!-- Desk legs -->
  <rect x="150" y="362" width="12" height="80" rx="2" fill="#0d1222"/>
  <rect x="1038" y="362" width="12" height="80" rx="2" fill="#0d1222"/>

  <!-- Laptop on desk (center) -->
  <rect x="520" y="316" width="160" height="36" rx="3" fill="#111827" stroke="#1e2d4a" stroke-width="1"/>
  <rect x="526" y="320" width="148" height="28" rx="2" fill="#0a0f1e"/>
  <!-- Laptop screen mini content -->
  <rect x="530" y="323" width="140" height="22" rx="1" fill="#060c18"/>
  <rect x="535" y="326" width="80" height="4" rx="1" fill="#ef4444" opacity="0.4"/>
  <rect x="535" y="333" width="60" height="3" rx="1" fill="#fbbf24" opacity="0.3"/>
  <rect x="535" y="340" width="70" height="3" rx="1" fill="#ef4444" opacity="0.2"/>
  <!-- Laptop base -->
  <rect x="510" y="350" width="180" height="6" rx="2" fill="#1a2035" stroke="#1e2d4a" stroke-width="0.5"/>

  <!-- Keyboard -->
  <rect x="460" y="342" width="280" height="10" rx="2" fill="#111827" opacity="0.6"/>

  <!-- Person silhouette — stressed figure, head in hands -->
  <!-- Body -->
  <ellipse cx="600" cy="460" rx="48" ry="38" fill="#0c1428" opacity="0.95"/>
  <!-- Head -->
  <ellipse cx="600" cy="395" rx="28" ry="30" fill="#0c1428" opacity="0.95"/>
  <!-- Shoulders / jacket -->
  <path d="M545,460 Q570,430 600,425 Q630,430 655,460 L665,520 L535,520 Z" fill="#0a1020" opacity="0.95"/>
  <!-- Neck -->
  <rect x="590" y="422" width="20" height="16" rx="4" fill="#0c1428" opacity="0.95"/>
  <!-- Arms up — head in hands gesture -->
  <path d="M545,460 Q530,440 520,420 Q515,410 522,405 Q535,398 542,415 Q552,435 560,450" fill="#0c1428" opacity="0.9" stroke="none"/>
  <path d="M655,460 Q670,440 680,420 Q685,410 678,405 Q665,398 658,415 Q648,435 640,450" fill="#0c1428" opacity="0.9" stroke="none"/>
  <!-- Hands covering face -->
  <ellipse cx="524" cy="405" rx="16" ry="12" fill="#0c1428" opacity="0.9"/>
  <ellipse cx="676" cy="405" rx="16" ry="12" fill="#0c1428" opacity="0.9"/>
  <!-- Subtle highlight on figure -->
  <path d="M575,370 Q600,360 625,370 Q620,380 600,382 Q580,380 575,370" fill="#162040" opacity="0.5"/>

  <!-- ══════════════════════════════════
       FLOATING WARNING / COST ELEMENTS
       ══════════════════════════════════ -->
  <!-- Dollar sign down left -->
  <g opacity="0.85" filter="url(#glow-red)">
    <circle cx="160" cy="420" r="22" fill="#1a0808" stroke="#ef4444" stroke-width="1.5"/>
    <text x="160" y="415" text-anchor="middle" font-size="14" fill="#ef4444" font-weight="bold">$</text>
    <text x="160" y="430" text-anchor="middle" font-size="10" fill="#ef4444">↓</text>
  </g>

  <!-- Dollar sign down right -->
  <g opacity="0.85" filter="url(#glow-red)">
    <circle cx="1040" cy="420" r="22" fill="#1a0808" stroke="#ef4444" stroke-width="1.5"/>
    <text x="1040" y="415" text-anchor="middle" font-size="14" fill="#ef4444" font-weight="bold">$</text>
    <text x="1040" y="430" text-anchor="middle" font-size="10" fill="#ef4444">↓</text>
  </g>

  <!-- Warning triangle floating left-mid -->
  <g opacity="0.7" filter="url(#glow-red)">
    <polygon points="380,390 400,422 360,422" fill="#1a0808" stroke="#ef4444" stroke-width="1.5"/>
    <text x="380" y="416" text-anchor="middle" font-size="14" fill="#ef4444" font-weight="bold">!</text>
  </g>

  <!-- Warning triangle floating right-mid -->
  <g opacity="0.7" filter="url(#glow-red)">
    <polygon points="820,390 840,422 800,422" fill="#1a0808" stroke="#ef4444" stroke-width="1.5"/>
    <text x="820" y="416" text-anchor="middle" font-size="14" fill="#ef4444" font-weight="bold">!</text>
  </g>

  <!-- Floating broken connection nodes -->
  <!-- Top-left connection hint -->
  <circle cx="68" cy="46" r="8" fill="#0d1525" stroke="#3b82f6" stroke-width="1" opacity="0.5"/>
  <line x1="68" y1="54" x2="68" y2="82" stroke="#3b82f6" stroke-width="0.8" stroke-dasharray="4,3" opacity="0.3"/>

  <circle cx="220" cy="30" r="8" fill="#0d1525" stroke="#ef4444" stroke-width="1" opacity="0.6"/>
  <line x1="220" y1="38" x2="220" y2="62" stroke="#ef4444" stroke-width="0.8" stroke-dasharray="4,3" opacity="0.3" filter="url(#glow-red)"/>

  <circle cx="980" cy="36" r="8" fill="#0d1525" stroke="#fbbf24" stroke-width="1" opacity="0.5"/>
  <line x1="980" y1="44" x2="980" y2="70" stroke="#fbbf24" stroke-width="0.8" stroke-dasharray="4,3" opacity="0.3"/>

  <!-- ══════════════════════════════════
       CIRCUIT LINES connecting screens
       ══════════════════════════════════ -->
  <!-- Left to center connection -->
  <path d="M368,175 L410,175 L440,163 L452,163" fill="none" stroke="#1e3a5a" stroke-width="1" stroke-dasharray="5,3" opacity="0.5"/>
  <circle cx="368" cy="175" r="3" fill="#3b82f6" opacity="0.4"/>
  <!-- Right to center connection -->
  <path d="M832,163 L780,163 L748,175 L748,175" fill="none" stroke="#1e3a5a" stroke-width="1" stroke-dasharray="5,3" opacity="0.5"/>
  <circle cx="832" cy="163" r="3" fill="#ef4444" opacity="0.4"/>

  <!-- ══════════════════════════════════
       FLOOR REFLECTION
       ══════════════════════════════════ -->
  <rect x="0" y="440" width="1200" height="235" fill="url(#floorGrad)" opacity="0.4"/>
  <!-- Reflection glow line -->
  <line x1="0" y1="440" x2="1200" y2="440" stroke="#1e3a5a" stroke-width="0.5" opacity="0.4"/>

  <!-- ══════════════════════════════════
       VIGNETTE
       ══════════════════════════════════ -->
  <radialGradient id="vignette" cx="50%" cy="50%" r="70%">
    <stop offset="0%" style="stop-color:#000000;stop-opacity:0"/>
    <stop offset="100%" style="stop-color:#000000;stop-opacity:0.65"/>
  </radialGradient>
  <rect width="1200" height="675" fill="url(#vignette)"/>

  <!-- ══════════════════════════════════
       SCAN LINES (subtle texture)
       ══════════════════════════════════ -->
  <rect width="1200" height="675" fill="none" opacity="0.025"
        style="background: repeating-linear-gradient(0deg, transparent, transparent 2px, #000 2px, #000 4px)"/>

</svg>
